<?xml version="1.0" encoding="UTF-8" standalone="no"?>
<!-- Created with Inkscape (http://www.inkscape.org/) -->

<svg
   xmlns:dc="http://purl.org/dc/elements/1.1/"
   xmlns:cc="http://creativecommons.org/ns#"
   xmlns:rdf="http://www.w3.org/1999/02/22-rdf-syntax-ns#"
   xmlns:svg="http://www.w3.org/2000/svg"
   xmlns="http://www.w3.org/2000/svg"
   xmlns:sodipodi="http://sodipodi.sourceforge.net/DTD/sodipodi-0.dtd"
   xmlns:inkscape="http://www.inkscape.org/namespaces/inkscape"
   version="1.1"
   id="svg2"
   width="36"
   height="36"
   viewBox="0 0 36 36"
   sodipodi:docname="cash.svg"
   inkscape:export-filename="/home/mss/Downloads/cash.svg.png"
   inkscape:export-xdpi="96"
   inkscape:export-ydpi="96"
   inkscape:version="0.92.5 (2060ec1f9f, 2020-04-08)">
  <metadata
     id="metadata8">
    <rdf:RDF>
      <cc:Work
         rdf:about="">
        <dc:format>image/svg+xml</dc:format>
        <dc:type
           rdf:resource="http://purl.org/dc/dcmitype/StillImage" />
        <dc:title></dc:title>
      </cc:Work>
    </rdf:RDF>
  </metadata>
  <defs
     id="defs6" />
  <sodipodi:namedview
     pagecolor="#ffffff"
     bordercolor="#666666"
     borderopacity="1"
     objecttolerance="10"
     gridtolerance="10"
     guidetolerance="10"
     inkscape:pageopacity="0"
     inkscape:pageshadow="2"
     inkscape:window-width="1920"
     inkscape:window-height="926"
     id="namedview4"
     showgrid="false"
     inkscape:pagecheckerboard="false"
     inkscape:zoom="10.449791"
     inkscape:cx="-23.670968"
     inkscape:cy="25.943164"
     inkscape:window-x="0"
     inkscape:window-y="34"
     inkscape:window-maximized="1"
     inkscape:current-layer="svg2" />
  <path
     style="color:#000000;font-style:normal;font-variant:normal;font-weight:normal;font-stretch:normal;font-size:medium;line-height:normal;font-family:sans-serif;font-variant-ligatures:normal;font-variant-position:normal;font-variant-caps:normal;font-variant-numeric:normal;font-variant-alternates:normal;font-feature-settings:normal;text-indent:0;text-align:start;text-decoration:none;text-decoration-line:none;text-decoration-style:solid;text-decoration-color:#000000;letter-spacing:normal;word-spacing:normal;text-transform:none;writing-mode:lr-tb;direction:ltr;text-orientation:mixed;dominant-baseline:auto;baseline-shift:baseline;text-anchor:start;white-space:normal;shape-padding:0;clip-rule:nonzero;display:inline;overflow:visible;visibility:visible;opacity:1;isolation:auto;mix-blend-mode:normal;color-interpolation:sRGB;color-interpolation-filters:linearRGB;solid-color:#000000;solid-opacity:1;vector-effect:none;fill:#e8e8e8;fill-opacity:1;fill-rule:nonzero;stroke:none;stroke-width:0.58333367;stroke-linecap:butt;stroke-linejoin:miter;stroke-miterlimit:4;stroke-dasharray:none;stroke-dashoffset:0;stroke-opacity:1;color-rendering:auto;image-rendering:auto;shape-rendering:auto;text-rendering:auto;enable-background:accumulate"
     d="m 20.75813,1.7960861 c -0.537296,-0.048438 -1.085848,-0.040415 -1.639481,0.027325 -4.13263,0.5059606 -6.700987,3.4514452 -7.27572,6.7516298 -0.574744,3.3001761 0.837761,6.9730181 4.541337,8.9197471 5.593088,2.939955 12.605021,-1.979365 11.831876,-8.2942581 C 27.725741,5.195064 24.519236,2.1351438 20.75813,1.7960751 Z m -0.0503,0.5821955 c 3.485177,0.3157773 6.471877,3.1561807 6.929376,6.8929015 0.716956,5.8556859 -5.803517,10.4288719 -10.98075,7.7075199 -3.491637,-1.835328 -4.77425,-5.232391 -4.239419,-8.3033865 0.534833,-3.0709948 2.879762,-5.7965627 6.772132,-6.2731144 0.51229,-0.062718 1.020837,-0.069069 1.51872,-0.02394 z m -0.729172,1.6474587 c -2.101502,0 -4.203245,1.0231201 -5.261381,3.0693371 -1.422354,2.7505485 -0.764999,5.5457066 0.958177,7.2688816 1.723166,1.723162 4.518329,2.380528 7.268874,0.958168 2.918413,-1.509153 3.907677,-5.109932 2.295769,-8.2270496 -1.05812,-2.046217 -3.159864,-3.0693372 -5.261378,-3.0693372 z m 0,0.5833305 c 1.896798,0 3.793588,0.9177643 4.743013,2.7537465 1.484677,2.8709737 0.586808,6.0799307 -2.045046,7.4409167 C 20.132184,16.11955 17.64267,15.506209 16.087982,13.951519 14.533317,12.39683 13.919978,9.9073118 15.235781,7.3628173 16.185208,5.5268351 18.081987,4.6090708 19.978777,4.6090708 Z m 10.519427,1.6599966 c -0.172423,0 -0.347613,0.057573 -0.471682,0.1731746 -0.124065,0.1156346 -0.188636,0.2698594 -0.216465,0.4249691 -0.05565,0.3102162 0.0103,0.6552512 0.140137,1.0390621 0.260053,0.7676269 0.810467,1.6820569 1.547193,2.4187818 0.947419,0.94742 1.207936,1.871774 0.919444,2.758307 -0.288502,0.886526 -1.182777,1.781394 -2.708172,2.513345 -0.540402,0.259313 -1.055117,0.575947 -1.460607,0.887535 -0.4055,0.31158 -0.709807,0.573224 -0.823734,0.923989 -0.0571,0.175265 -0.05335,0.378389 0.03658,0.544596 0.08955,0.166208 0.241551,0.278668 0.414723,0.35661 0.346353,0.155876 0.815668,0.209631 1.446939,0.209631 1.414044,0 2.914666,-0.857369 4.086765,-2.031414 1.172074,-1.174045 2.027979,-2.677793 2.027979,-4.093588 0,-1.425206 -0.614749,-2.6017354 -2.069005,-4.0559853 C 32.813108,7.7830002 32.232922,7.2796303 31.73553,6.9093689 31.486826,6.7242356 31.259548,6.5720199 31.059905,6.4616129 30.860268,6.3511999 30.70769,6.2690674 30.498228,6.2690674 Z m 0,0.5833299 c -0.02247,0 0.114542,0.028613 0.279129,0.1196344 0.164593,0.091017 0.375333,0.2312486 0.609542,0.4055977 0.468419,0.3486907 1.033085,0.8371242 1.568842,1.3728802 1.404085,1.4040804 1.898114,2.3785694 1.898114,3.6435564 0,1.172396 -0.763351,2.585577 -1.857099,3.681147 -1.093753,1.095582 -2.504474,1.860527 -3.67431,1.860527 -0.591697,0 -1.010717,-0.0697 -1.207677,-0.158371 -0.0985,-0.04413 -0.132907,-0.08585 -0.141282,-0.1014 -0.0097,-0.01565 -0.01554,-0.02276 0.0068,-0.08776 0.01611,-0.05045 0.256578,-0.358846 0.62435,-0.641442 0.367738,-0.282581 0.855469,-0.583713 1.35804,-0.824866 1.610973,-0.773119 2.649151,-1.750185 3.009839,-2.858554 0.360413,-1.10835 -0.01251,-2.301164 -1.062116,-3.350734 C 31.243153,9.2456418 30.72674,8.379662 30.503069,7.7194182 30.391234,7.3893005 30.359896,7.1083937 30.384579,6.9708879 c 0.01228,-0.068758 0.03178,-0.093755 0.04008,-0.1013995 0.0095,-0.00771 0.01454,-0.01706 0.07416,-0.01706 z M 1.0205187,12.102397 v 9.624996 9.624997 H 17.645528 34.270531 v -6.124995 c 0,-1.607495 -0.02718,-3.068865 -0.07181,-4.132312 -0.02244,-0.531735 -0.0483,-0.962715 -0.07868,-1.269218 -0.0153,-0.15324 -0.03027,-0.273324 -0.0503,-0.370279 -0.0103,-0.0484 -0.01902,-0.08947 -0.04014,-0.141269 -0.0106,-0.02598 -0.02267,-0.0547 -0.05717,-0.0968 -0.03415,-0.04194 -0.115043,-0.115081 -0.238108,-0.115081 -0.822916,0 -1.485746,0.298694 -1.867353,0.94451 -0.381617,0.645807 -0.513837,1.573048 -0.513837,2.883626 0,1.112905 -0.07592,1.86234 -0.282557,2.462063 -0.206485,0.599751 -0.542015,1.06954 -1.116539,1.644045 l -1.400041,1.399101 H 17.645502 6.7364791 L 5.3362529,27.036642 C 4.696983,26.397386 4.37462,25.967151 4.1809796,25.247913 3.987338,24.528682 3.9371635,23.492657 3.9371635,21.727393 c 0,-1.765242 0.050199,-2.801261 0.2438161,-3.520501 0.1936404,-0.719235 0.5160034,-1.149468 1.1552733,-1.788733 0.9580856,-0.958088 1.9872893,-1.399091 3.2390846,-1.399091 0.8466203,0 1.3523218,-0.0031 1.7215385,-0.263184 0.184588,-0.130097 0.294002,-0.352897 0.311023,-0.56966 0.01699,-0.216768 -0.02606,-0.437906 -0.09458,-0.699549 C 10.4403,13.207342 10.340409,12.952221 10.146477,12.743842 9.9525372,12.535453 9.6805503,12.39712 9.3261546,12.307476 8.6173932,12.128193 7.5303805,12.102397 5.6188072,12.102397 Z m 0.5833326,0.58334 h 4.0149774 c 1.9047963,0 2.9893584,0.04122 3.5649386,0.186849 0.287802,0.07278 0.4356255,0.161591 0.5354784,0.26888 0.09986,0.107277 0.1680247,0.255771 0.230156,0.493321 0.06157,0.236246 0.0851,0.410522 0.077535,0.505865 -0.0086,0.09536 -0.01332,0.100763 -0.066059,0.137856 -0.1052665,0.07421 -0.5586793,0.157229 -1.3854266,0.157229 -1.3937916,0 -2.6059112,0.524374 -3.6515207,1.569987 -0.6650669,0.665092 -1.084086,1.222488 -1.3067807,2.049642 -0.2226936,0.827149 -0.2631836,1.89687 -0.2631836,3.672027 0,1.775157 0.04047,2.844894 0.2631836,3.672049 0.2226947,0.827145 0.6417138,1.384552 1.306803,2.049655 l 1.5711157,1.569967 H 17.645555 28.79611 l 1.571111,-1.569967 c 0.607997,-0.607992 1.015233,-1.169416 1.255546,-1.867357 0.240299,-0.697959 0.314449,-1.512197 0.314449,-2.651209 0,-1.267915 0.15078,-2.109898 0.432943,-2.587412 0.245787,-0.415946 0.606473,-0.57648 1.148439,-0.618648 0.0086,0.05324 0.01323,0.08584 0.02047,0.158368 0.02826,0.285951 0.05426,0.711736 0.07623,1.237297 0.04387,1.051145 0.07182,2.506418 0.07182,4.107259 V 30.76907 H 17.645554 1.6038761 v -9.041677 z m 12.4493807,6.080569 c -0.278621,0.06141 -0.524994,0.205356 -0.714356,0.413568 -0.378723,0.416422 -0.567919,1.032936 -0.620937,1.726071 -0.106001,1.386294 0.347539,3.12294 1.486822,4.262224 0.953335,0.953309 2.213667,1.517578 3.440767,1.517578 1.213338,0 2.43522,-0.605252 3.367833,-1.474295 0.932625,-0.869027 1.590494,-2.013765 1.590494,-3.166181 0,-1.067665 -0.642959,-1.763325 -1.377435,-1.833164 -0.734491,-0.06979 -1.484997,0.504803 -1.641776,1.558597 -0.225461,1.515427 -1.15619,2.045926 -2.005207,1.931134 -0.849009,-0.114781 -1.672716,-0.902776 -1.601892,-2.440412 0.02724,-0.593752 -0.03635,-1.107149 -0.19823,-1.523286 -0.162067,-0.416129 -0.437476,-0.744217 -0.816893,-0.889812 -0.319009,-0.122406 -0.630569,-0.143613 -0.90919,-0.082 z m 0.124199,0.548011 c 0.156353,-0.0339 0.340399,-0.01171 0.575358,0.07866 0.198957,0.07624 0.362543,0.24767 0.48306,0.557128 0.120532,0.309468 0.18305,0.748243 0.158374,1.284028 -0.08145,1.765298 0.945955,2.88832 2.10775,3.045414 1.161764,0.157071 2.401065,-0.68077 2.660321,-2.423361 0.124366,-0.835909 0.593768,-1.102405 1.008292,-1.062972 0.414529,0.03954 0.849941,0.403331 0.849941,1.25211 0,0.924094 -0.561189,1.95398 -1.404795,2.740065 -0.843594,0.786087 -1.955124,1.317059 -2.970204,1.317059 -1.046012,0 -2.176535,-0.494892 -3.028335,-1.34667 -0.979543,-0.979548 -1.411293,-2.587895 -1.318194,-3.805345 0.04674,-0.608715 0.227839,-1.109325 0.471689,-1.377439 0.12191,-0.134054 0.250378,-0.22459 0.406743,-0.258621 z m -4.6985745,0.413569 c -0.2144585,0 -0.4062821,0.09349 -0.5856191,0.225598 -0.179309,0.132014 -0.362463,0.310066 -0.5912982,0.538894 -0.4132942,0.413273 -0.6801849,0.732578 -0.7269013,1.13021 -0.046851,0.397632 0.1635924,0.745229 0.4887878,1.137037 0.2210171,0.266326 0.4707184,0.504939 0.7075037,0.684743 0.2368039,0.179772 0.4230996,0.3247 0.7075271,0.3247 0.2844234,0 0.4707233,-0.144928 0.7075205,-0.3247 0.236792,-0.179804 0.486488,-0.418417 0.707511,-0.684743 0.325199,-0.391808 0.535482,-0.739405 0.488784,-1.137037 -0.04686,-0.397632 -0.313609,-0.716937 -0.726904,-1.13021 -0.22883,-0.228828 -0.41199,-0.40688 -0.591294,-0.538894 -0.1793325,-0.132041 -0.37116,-0.225598 -0.5856175,-0.225598 z m 16.3333295,0 c -0.214464,0 -0.406288,0.09349 -0.585607,0.225598 -0.179316,0.132014 -0.362481,0.310066 -0.591306,0.538894 -0.413278,0.413273 -0.680189,0.732578 -0.726885,1.13021 -0.04692,0.397632 0.163573,0.745229 0.488756,1.137037 0.221051,0.266326 0.470731,0.504939 0.707534,0.684743 0.236778,0.179772 0.423077,0.3247 0.707508,0.3247 0.284445,0 0.470736,-0.144928 0.707524,-0.3247 0.236786,-0.179804 0.486485,-0.418417 0.707515,-0.684743 0.325188,-0.391808 0.535473,-0.739405 0.488774,-1.137037 -0.0469,-0.397632 -0.313602,-0.716937 -0.726885,-1.13021 -0.228833,-0.228828 -0.411992,-0.40688 -0.591313,-0.538894 -0.179317,-0.132041 -0.371134,-0.225598 -0.585615,-0.225598 z M 9.4788555,20.31123 c 0.04441,0 0.1111352,0.01862 0.2392509,0.112781 0.128112,0.09432 0.3013496,0.256923 0.5252436,0.480804 0.388588,0.388596 0.541474,0.632341 0.559387,0.784991 0.018,0.152654 -0.06296,0.342076 -0.35773,0.697273 -0.191747,0.231009 -0.415757,0.444433 -0.6106896,0.592442 -0.1949396,0.148013 -0.3976369,0.20623 -0.3554619,0.20623 0.04226,0 -0.1605265,-0.05805 -0.3554642,-0.20623 C 8.9284578,22.831512 8.7044454,22.618088 8.512699,22.387079 8.2179403,22.031882 8.13704,21.84246 8.1549668,21.689806 8.1729817,21.537156 8.3257661,21.293411 8.7143629,20.904815 8.9382484,20.680934 9.1114904,20.518347 9.2396048,20.424011 9.3677151,20.329703 9.4343086,20.31123 9.4788555,20.31123 Z m 16.3333305,0 c 0.0444,0 0.111149,0.01862 0.239266,0.112781 0.128114,0.09432 0.30135,0.256923 0.525224,0.480804 0.388611,0.388596 0.541467,0.632341 0.559412,0.784991 0.01795,0.152654 -0.06297,0.342076 -0.357749,0.697273 -0.191731,0.231009 -0.415743,0.444433 -0.610682,0.592442 -0.194928,0.148013 -0.397634,0.20623 -0.355471,0.20623 0.04227,0 -0.160533,-0.05805 -0.355465,-0.20623 -0.194931,-0.148009 -0.418941,-0.361433 -0.610672,-0.592442 -0.294767,-0.355197 -0.375684,-0.544619 -0.357746,-0.697273 0.01796,-0.15265 0.1708,-0.396395 0.559405,-0.784991 0.223872,-0.223881 0.397113,-0.386468 0.525228,-0.480804 0.128107,-0.09431 0.194719,-0.112781 0.23925,-0.112781 z"
     id="path818"
     inkscape:connector-curvature="0" />
  <g
     inkscape:groupmode="layer"
     id="layer1"
     inkscape:label="Layer 1"
     transform="translate(0,-28)" />
  <path
     style="opacity:0.88999999;fill:#e8e8e8;fill-opacity:1;stroke:none;stroke-width:0.02073406;stroke-miterlimit:4;stroke-dasharray:none;stroke-opacity:1;paint-order:fill markers stroke"
     d="M 18.774726,17.380375 C 17.564587,17.173144 15.82892,16.229829 14.828629,15.235718 10.480096,10.914046 12.879757,3.6905466 18.97297,2.7603528 c 3.707036,-0.5659183 7.187676,1.8590031 8.189584,5.7055867 1.259857,4.8369195 -3.383181,9.7714585 -8.387828,8.9144355 z m 2.422474,-1.15025 c 1.351408,-0.286444 2.486745,-0.875426 3.34835,-1.737031 2.948396,-2.948396 2.003175,-8.3591127 -1.767583,-10.1181507 -3.745538,-1.747273 -7.917711,0.2133817 -8.917516,4.1906623 -0.294932,1.173258 -0.128453,3.1333114 0.355904,4.1902654 0.951117,2.075508 3.245294,3.593081 5.560913,3.678483 0.21382,0.0079 0.852789,-0.08402 1.419932,-0.204229 z"
     id="path816"
     inkscape:connector-curvature="0" />
  <path
     style="opacity:0.88999999;fill:#e8e8e8;fill-opacity:1;stroke:none;stroke-width:0.02073406;stroke-miterlimit:4;stroke-dasharray:none;stroke-opacity:1;paint-order:fill markers stroke"
     d="m 1.8941356,21.74202 v -8.864554 l 2.6047171,0.0068 c 2.7097877,0.0071 4.800321,0.17578 5.0122829,0.404419 0.067826,0.07316 0.1660656,0.275275 0.2183114,0.449141 0.088416,0.294236 -0.0054,0.328056 -1.3552447,0.488546 -0.8927053,0.106139 -1.7081729,0.304016 -2.1211732,0.514713 -1.0017214,0.51104 -2.1235705,1.641098 -2.6075647,2.626645 l -0.429532,0.874647 v 3.498873 c 0,4.200525 0.040661,4.33459 1.8914839,6.236487 l 1.1948069,1.227777 H 17.691928 29.081631 l 1.115071,-1.205167 c 1.676399,-1.811851 1.817248,-2.167729 2.012675,-5.085315 0.06902,-1.030456 0.213578,-2.062145 0.321234,-2.292642 0.197159,-0.422126 0.584171,-0.67946 0.759016,-0.50469 0.0519,0.05188 0.09437,2.415269 0.09437,5.251971 v 5.15764 l -15.744932,0.03962 -15.7449314,0.03962 z"
     id="path819"
     inkscape:connector-curvature="0" />
  <path
     style="opacity:0.88999999;fill:#e8e8e8;fill-opacity:1;stroke:none;stroke-width:0.02073406;stroke-miterlimit:4;stroke-dasharray:none;stroke-opacity:1;paint-order:fill markers stroke"
     d="m 28.73301,17.55955 c -0.27208,-0.106391 -0.259112,-0.142197 0.155506,-0.429359 0.248787,-0.172309 0.872205,-0.545931 1.385373,-0.830272 2.163451,-1.198745 3.084779,-2.354847 3.083389,-3.869104 -9.35e-4,-1.01941 -0.195527,-1.442659 -1.285047,-2.7950565 C 31.208354,8.5634474 30.768668,7.8165041 30.852785,7.5641517 30.92495,7.347657 32.283109,8.4376962 33.1693,9.423354 c 0.998983,1.111109 1.302025,1.788023 1.302687,2.909843 6.99e-4,1.184368 -0.438124,2.110588 -1.588787,3.353441 -1.206236,1.30288 -3.249659,2.225042 -4.15019,1.872912 z"
     id="path821"
     inkscape:connector-curvature="0" />
  <path
     style="opacity:0.88999999;fill:#e8e8e8;fill-opacity:1;stroke:none;stroke-width:0.02073406;stroke-miterlimit:4;stroke-dasharray:none;stroke-opacity:1;paint-order:fill markers stroke"
     d="m 16.4339,26.810941 c -1.557457,-0.492558 -2.67593,-1.419996 -3.383389,-2.805504 -0.398332,-0.780106 -0.492984,-1.173467 -0.549732,-2.284609 -0.04119,-0.806483 0.0049,-1.56482 0.115476,-1.899854 0.433894,-1.314713 2.051831,-1.813251 2.954657,-0.910425 0.47163,0.471631 0.785235,1.573182 0.785235,2.758179 0,0.958003 0.639919,1.689809 1.477634,1.689809 0.721753,0 1.070314,-0.385103 1.411813,-1.559818 0.596006,-2.050187 2.24264,-2.544232 3.301206,-0.990473 0.320215,0.47001 0.360648,0.676032 0.296344,1.509989 -0.150786,1.955531 -1.818421,3.815032 -4.003278,4.463864 -0.977417,0.290262 -1.557381,0.297215 -2.405966,0.02884 z m 2.527951,-1.333784 c 1.032208,-0.468527 1.734891,-1.079857 2.226611,-1.937139 0.516057,-0.899713 0.611539,-1.941645 0.208579,-2.276073 -0.391966,-0.325303 -0.724798,0.01167 -1.027809,1.040589 -0.283847,0.963846 -0.973009,1.840912 -1.648231,2.097631 -0.50556,0.192213 -1.540832,0.17269 -1.947437,-0.03673 -1.085652,-0.559145 -1.527011,-1.374662 -1.664564,-3.075679 -0.08152,-1.008122 -0.171119,-1.354653 -0.392018,-1.516178 -0.399434,-0.292073 -0.492585,-0.267636 -0.806462,0.211564 -0.402197,0.61404 -0.355708,2.226953 0.0932,3.233435 0.930684,2.086666 3.129846,3.088449 4.958133,2.258575 z"
     id="path823"
     inkscape:connector-curvature="0" />
  <path
     style="opacity:0.88999999;fill:#e8e8e8;fill-opacity:1;stroke:none;stroke-width:0.02073406;stroke-miterlimit:4;stroke-dasharray:none;stroke-opacity:1;paint-order:fill markers stroke"
     d="m 16.723872,25.623021 c -1.734217,-0.530904 -3.011319,-2.278735 -3.011319,-4.12127 0,-1.118547 0.233798,-1.782043 0.627943,-1.782043 0.442563,0 0.601269,0.350727 0.74663,1.649994 0.160152,1.431469 0.411714,1.998842 1.188735,2.681076 0.483363,0.424398 0.673539,0.4896 1.428015,0.4896 0.611077,0 1.02684,-0.09669 1.395515,-0.324544 0.572163,-0.353616 1.210195,-1.334726 1.37122,-2.108543 0.056,-0.269097 0.229484,-0.604809 0.385527,-0.746026 0.261448,-0.236607 0.303471,-0.237001 0.535455,-0.005 0.790272,0.790271 -0.426845,3.045761 -2.101498,3.894372 -0.874389,0.443087 -1.865506,0.586914 -2.566223,0.3724 z"
     id="path825"
     inkscape:connector-curvature="0" />
  <path
     style="opacity:0.88999999;fill:#e8e8e8;fill-opacity:1;stroke:none;stroke-width:0.02073406;stroke-miterlimit:4;stroke-dasharray:none;stroke-opacity:1;paint-order:fill markers stroke"
     d="m 8.8890384,22.282614 -0.5303712,-0.547204 0.5739464,-0.573947 0.5739465,-0.573946 0.470189,0.450469 c 0.2586039,0.247759 0.4701889,0.56424 0.4701889,0.703293 0,0.225326 -0.7532828,1.088539 -0.9499134,1.088539 -0.042688,0 -0.3162821,-0.246242 -0.6079862,-0.547204 z"
     id="path827"
     inkscape:connector-curvature="0" />
  <path
     style="opacity:0.88999999;fill:#e8e8e8;fill-opacity:1;stroke:none;stroke-width:0.02073406;stroke-miterlimit:4;stroke-dasharray:none;stroke-opacity:1;paint-order:fill markers stroke"
     d="m 25.13558,23.784167 c -1.008908,-0.615252 -1.604681,-1.6433 -1.407533,-2.428799 0.124458,-0.49588 0.94466,-1.430417 1.513655,-1.724656 0.624175,-0.322773 1.067229,-0.156881 1.935599,0.724746 0.63713,0.646857 0.756937,0.861734 0.756937,1.357587 0,0.666363 -0.396038,1.267774 -1.273026,1.933177 -0.66413,0.503899 -0.891777,0.524482 -1.525632,0.137945 z m 1.203286,-1.372206 c 0.555789,-0.53248 0.54938,-0.815023 -0.0311,-1.371158 L 25.840517,20.59315 25.29698,21.119967 c -0.298946,0.289749 -0.543537,0.575667 -0.543537,0.635372 0,0.154937 0.877874,1.074479 1.02579,1.074479 0.06792,0 0.31975,-0.188036 0.559633,-0.417857 z"
     id="path829"
     inkscape:connector-curvature="0" />
  <path
     style="opacity:1;fill:#e8e8e8;fill-opacity:1;stroke:none;stroke-width:0.02073406;stroke-miterlimit:4;stroke-dasharray:none;stroke-opacity:1;paint-order:fill markers stroke"
     d="m 25.320411,22.386993 c -0.226304,-0.236211 -0.411462,-0.526781 -0.411462,-0.645714 0,-0.118932 0.185158,-0.409503 0.411462,-0.645713 0.46611,-0.486515 0.761784,-0.422607 1.210059,0.261547 0.243272,0.371281 0.245155,0.437827 0.02202,0.778371 -0.436616,0.666361 -0.769521,0.734318 -1.232081,0.251509 z"
     id="path831"
     inkscape:connector-curvature="0" />
  <path
     style="opacity:1;fill:#e8e8e8;fill-opacity:1;stroke:none;stroke-width:0.01465305;stroke-miterlimit:4;stroke-dasharray:none;stroke-opacity:1;paint-order:fill markers stroke"
     d="m 0.77032002,21.729384 v -9.897868 l 4.20359388,0.03908 c 4.4298645,0.04118 4.670661,0.06728 5.2346471,0.567227 0.564404,0.500322 0.831803,1.57519 0.547239,2.199742 -0.1953,0.428637 -0.721314,0.604983 -2.1024289,0.70484 -1.0199149,0.07374 -1.3769733,0.147022 -1.8543232,0.380567 -0.7782702,0.380773 -1.8069046,1.40862 -2.1687051,2.167047 l -0.2883417,0.604439 v 3.187038 c 0,3.947326 -0.033765,3.823931 1.4659847,5.357522 l 1.0478599,1.071504 H 17.640354 28.424862 l 0.977241,-0.986364 c 1.444173,-1.457655 1.527167,-1.676009 1.692759,-4.453581 0.05766,-0.967101 0.169031,-1.956182 0.247501,-2.197958 0.07847,-0.241775 0.365607,-0.669321 0.638083,-0.950101 0.411347,-0.423882 0.601744,-0.532246 1.122041,-0.638607 0.696759,-0.142434 0.980762,-0.05989 1.199373,0.348589 0.145229,0.271361 0.30129,5.072116 0.310933,9.564884 l 0.0061,2.82987 H 17.694593 0.77032002 Z"
     id="path833"
     inkscape:connector-curvature="0" />
  <path
     style="opacity:1;fill:#e8e8e8;fill-opacity:1;stroke:none;stroke-width:0.01465305;stroke-miterlimit:4;stroke-dasharray:none;stroke-opacity:1;paint-order:fill markers stroke"
     d="m 27.915152,18.651696 c -0.51369,-0.215982 -0.769341,-0.549775 -0.769341,-1.004497 0,-0.233366 0.08179,-0.549126 0.181752,-0.70169 0.230755,-0.352176 1.243885,-1.063745 2.501856,-1.757172 1.592907,-0.878051 2.371694,-1.795252 2.371694,-2.793213 0,-0.601789 -0.223818,-1.053931 -0.908206,-1.834695 -1.17944,-1.3455285 -1.939859,-2.9343892 -1.776044,-3.7109604 0.201177,-0.9536848 1.042328,-1.1048157 2.089067,-0.3753457 1.659349,1.1563968 3.014005,2.6117717 3.640258,3.9109121 0.760774,1.5782 0.592624,3.218801 -0.49992,4.877601 -0.526567,0.799482 -1.455794,1.790836 -2.215461,2.363583 -0.211553,0.159501 -0.755548,0.46703 -1.208877,0.683398 -0.759449,0.362477 -0.914932,0.39592 -1.978161,0.425485 -0.638892,0.01777 -1.276531,-0.01946 -1.428617,-0.08341 z m 5.398958,-3.371752 c 0.136699,-0.174305 0.132812,-0.178192 -0.04149,-0.04149 -0.105777,0.08296 -0.192322,0.169501 -0.192322,0.192321 0,0.09045 0.09025,0.03223 0.233814,-0.150828 z m 1.160034,-3.674711 c -0.03508,-0.08767 -0.06112,-0.06163 -0.0664,0.0664 -0.0048,0.115851 0.0212,0.180759 0.05772,0.144241 0.03652,-0.03652 0.04042,-0.131305 0.0087,-0.210638 z M 31.212032,7.5948837 c 0,-0.015143 -0.09891,-0.080467 -0.219795,-0.1451639 -0.168233,-0.090035 -0.219796,-0.083576 -0.219796,0.027533 0,0.07984 0.09891,0.1451639 0.219796,0.1451639 0.120887,0 0.219795,-0.01239 0.219795,-0.027533 z"
     id="path835"
     inkscape:connector-curvature="0" />
  <path
     style="opacity:1;fill:#e8e8e8;fill-opacity:1;stroke:none;stroke-width:0.01465305;stroke-miterlimit:4;stroke-dasharray:none;stroke-opacity:1;paint-order:fill markers stroke"
     d="m 27.737926,18.600314 c -0.570551,-0.28957 -0.791749,-1.011114 -0.485432,-1.583473 0.184988,-0.345653 1.104889,-1.030914 2.232176,-1.662813 2.181352,-1.222753 2.950311,-2.242408 2.615756,-3.468542 -0.06757,-0.247635 -0.467311,-0.859472 -0.959459,-1.468523 -0.946428,-1.1712432 -1.550927,-2.3265623 -1.648531,-3.1506774 -0.05957,-0.5029487 -0.03619,-0.5852729 0.26051,-0.9173353 0.264445,-0.2959651 0.401545,-0.3619586 0.726578,-0.3497394 0.220345,0.00828 0.544782,0.089606 0.720969,0.1807162 0.544071,0.2813499 1.899888,1.4151528 2.634067,2.2027397 1.428503,1.5324208 1.934546,2.6887602 1.861096,4.2527202 -0.03998,0.851278 -0.09402,1.053491 -0.499241,1.868264 -0.81114,1.630932 -2.178625,2.997029 -3.764587,3.760762 -0.897614,0.432254 -0.98139,0.451005 -2.143008,0.479661 -0.929716,0.02294 -1.287858,-0.01026 -1.550894,-0.14376 z"
     id="path837"
     inkscape:connector-curvature="0" />
  <path
     style="opacity:1;fill:#e8e8e8;fill-opacity:1;stroke:none;stroke-width:0.01465305;stroke-miterlimit:4;stroke-dasharray:none;stroke-opacity:1;paint-order:fill markers stroke"
     d="M 18.636968,18.542839 C 16.064634,18.112193 13.539733,16.2075 12.336632,13.790098 11.718108,12.54729 11.492987,11.527154 11.49525,9.977371 c 0.0024,-1.6456471 0.168921,-2.3592307 0.897587,-3.8464257 0.432022,-0.8817499 0.666023,-1.1980764 1.505446,-2.0350892 1.668466,-1.6636737 3.417316,-2.4439399 5.719523,-2.55182 1.626054,-0.076196 2.627933,0.1317569 4.079836,0.8468224 2.519205,1.2407146 4.265508,3.6376204 4.735273,6.4994502 0.220519,1.3434033 0.0985,2.6720873 -0.362831,3.9510103 -1.38494,3.839376 -5.543272,6.352735 -9.433116,5.70152 z m -1.171329,-1.573732 c -0.111759,-0.101843 -1.199718,-0.615724 -1.199718,-0.566667 0,0.0669 1.004286,0.596143 1.14477,0.603278 0.05541,0.0028 0.08013,-0.01366 0.05495,-0.03661 z m 2.397148,-0.574158 c -0.03652,-0.03652 -0.131305,-0.04042 -0.210638,-0.0087 -0.08767,0.03508 -0.06163,0.06112 0.0664,0.0664 0.115851,0.0048 0.180759,-0.0212 0.144241,-0.05772 z m -4.036458,-0.30479 c 0,-0.02282 -0.08654,-0.109365 -0.192321,-0.192321 -0.174304,-0.136699 -0.178191,-0.132812 -0.04149,0.04149 0.143567,0.183062 0.233813,0.241279 0.233813,0.150828 z M 15.386738,15.77073 c 0,-0.01718 -0.284361,-0.301537 -0.631913,-0.631913 l -0.631913,-0.600684 0.600685,0.631913 c 0.558054,0.587067 0.663141,0.682256 0.663141,0.600684 z m 10.330401,-1.035683 c 0,-0.08252 -0.09867,0.0047 -0.554083,0.489948 l -0.489947,0.522015 0.522015,-0.489948 c 0.287108,-0.269471 0.522015,-0.504378 0.522015,-0.522015 z m -4.697336,0.356239 c 1.58338,-0.335532 3.015565,-1.413102 3.644164,-2.741852 1.260182,-2.6638041 -0.0647,-6.0662397 -2.766828,-7.1055052 -0.788171,-0.3031387 -2.233238,-0.403344 -3.089509,-0.2142359 -1.94579,0.4297292 -3.388139,1.9032779 -3.862005,3.945545 -0.08383,0.3612998 -0.11545,0.9731836 -0.08127,1.5727121 0.04803,0.842332 0.112361,1.095462 0.454209,1.787144 0.693678,1.403562 1.925246,2.40281 3.403337,2.761341 0.761797,0.184785 1.408444,0.183336 2.297898,-0.0052 z m 4.93115,-0.690525 c 0.136699,-0.174305 0.132811,-0.178192 -0.04149,-0.04149 -0.183063,0.143567 -0.241279,0.233814 -0.150828,0.233814 0.02282,0 0.109364,-0.08655 0.192321,-0.192321 z m 0.59042,-0.906658 c 0.09377,-0.181331 0.145764,-0.329694 0.115542,-0.329694 -0.03022,0 -0.13167,0.148363 -0.22544,0.329694 -0.09377,0.181332 -0.145764,0.329694 -0.115543,0.329694 0.03022,0 0.13167,-0.148362 0.225441,-0.329694 z M 26.08052,5.9037767 C 25.971326,5.7183902 25.788753,5.4834834 25.674803,5.3817617 25.560853,5.2800402 25.63219,5.43172 25.83333,5.7188282 c 0.414657,0.59188 0.543779,0.6884908 0.24719,0.1849485 z M 14.191879,5.4990324 c 0.136699,-0.1743041 0.132812,-0.1781912 -0.04149,-0.041492 -0.105777,0.082956 -0.192322,0.1695003 -0.192322,0.1923212 0,0.09045 0.09025,0.032233 0.233814,-0.1508288 z m 0.597334,-0.7143362 0.32278,-0.3571681 -0.357168,0.3227801 c -0.332931,0.3008763 -0.407683,0.3915561 -0.32278,0.3915561 0.01891,0 0.179639,-0.1607256 0.357168,-0.3571681 z m 1.147014,-0.9271845 c 0,-0.076341 -0.642868,0.39943 -0.729821,0.5401234 -0.04239,0.068596 0.104472,-0.013757 0.32637,-0.1830073 0.221898,-0.1692501 0.403451,-0.3299523 0.403451,-0.3571161 z m 0.387551,-0.2329933 c -0.03384,-0.033836 -0.122514,-6.97e-5 -0.197061,0.075036 -0.107729,0.1085369 -0.09511,0.1211602 0.06152,0.06152 0.108384,-0.04127 0.169377,-0.1027207 0.135541,-0.136556 z m 4.308294,-0.9668041 c -0.03652,-0.036518 -0.131305,-0.040422 -0.210638,-0.00868 -0.08767,0.035082 -0.06163,0.061123 0.0664,0.066397 0.115851,0.00477 0.180759,-0.021202 0.144241,-0.057721 z"
     id="path839"
     inkscape:connector-curvature="0" />
  <path
     style="opacity:1;fill:#e8e8e8;fill-opacity:1;stroke:none;stroke-width:0.01465305;stroke-miterlimit:4;stroke-dasharray:none;stroke-opacity:1;paint-order:fill markers stroke"
     d="m 16.369777,26.811556 c -2.005872,-0.665547 -3.467931,-2.286408 -3.830227,-4.246248 -0.445398,-2.40938 0.327614,-4.1258 1.858107,-4.1258 1.160825,0 1.769075,0.821112 1.920577,2.592702 0.130165,1.522072 0.400005,2.039084 1.172862,2.247193 0.865694,0.233107 1.344392,-0.213868 1.805801,-1.686134 0.497691,-1.588036 1.820606,-2.173311 2.856524,-1.263763 0.549388,0.482369 0.706373,0.850462 0.706373,1.656279 0,1.240945 -0.422039,2.186145 -1.449528,3.246367 -1.421104,1.466377 -3.457763,2.104551 -5.040489,1.579404 z m -2.668622,-5.981769 c -0.03049,-0.07556 -0.05543,-0.01374 -0.05543,0.137372 0,0.151109 0.02494,0.212927 0.05543,0.137372 0.03049,-0.07556 0.03049,-0.19919 0,-0.274744 z m 1.026196,-1.016556 c -0.07525,-0.09067 -0.242027,-0.15911 -0.370625,-0.152098 -0.221786,0.01209 -0.222507,0.01547 -0.01402,0.06562 0.120888,0.02908 0.266777,0.09752 0.324199,0.152098 0.167831,0.159517 0.209629,0.114142 0.06044,-0.06562 z"
     id="path841"
     inkscape:connector-curvature="0" />
  <path
     style="opacity:1;fill:#e8e8e8;fill-opacity:1;stroke:none;stroke-width:0.01465305;stroke-miterlimit:4;stroke-dasharray:none;stroke-opacity:1;paint-order:fill markers stroke"
     d="m 25.387445,23.965968 c -0.351589,-0.130056 -1.143199,-0.862946 -1.443426,-1.336355 -0.335383,-0.528844 -0.403959,-1.070025 -0.187205,-1.477358 0.434564,-0.816647 1.520993,-1.723666 2.064611,-1.723666 0.719483,0 2.203569,1.554322 2.203569,2.307855 0,0.55828 -0.802116,1.623418 -1.579515,2.097456 -0.336285,0.205058 -0.728401,0.254003 -1.058034,0.132068 z m -0.418068,-2.202049 c -0.03184,-0.166221 -0.0791,-0.238771 -0.105025,-0.161222 -0.04675,0.139845 0.03688,0.463441 0.119761,0.463441 0.02374,0 0.01711,-0.135999 -0.01474,-0.302219 z"
     id="path843"
     inkscape:connector-curvature="0" />
  <path
     style="opacity:1;fill:#e8e8e8;fill-opacity:1;stroke:none;stroke-width:0.01465305;stroke-miterlimit:4;stroke-dasharray:none;stroke-opacity:1;paint-order:fill markers stroke"
     d="m 25.164628,23.862599 c -0.868603,-0.580833 -1.535549,-1.508253 -1.535549,-2.135251 0,-0.511837 0.531747,-1.328693 1.190044,-1.828114 0.886202,-0.672321 1.297084,-0.624614 2.222467,0.258052 0.747066,0.712581 1.031981,1.237237 0.949131,1.747777 -0.141782,0.873701 -1.415807,2.139237 -2.153587,2.139237 -0.220431,0 -0.523059,-0.08177 -0.672506,-0.181701 z"
     id="path845"
     inkscape:connector-curvature="0" />
  <path
     style="opacity:1;fill:#e8e8e8;fill-opacity:1;stroke:none;stroke-width:0.01465305;stroke-miterlimit:4;stroke-dasharray:none;stroke-opacity:1;paint-order:fill markers stroke"
     d="M 8.8478141,23.840456 C 8.3002831,23.503291 7.4999569,22.562615 7.3582653,22.08969 7.2399512,21.694793 7.251993,21.590798 7.4676061,21.145401 c 0.3113604,-0.643185 1.3245856,-1.576212 1.8107368,-1.667414 0.4802231,-0.09009 0.8522041,0.111978 1.5625151,0.848793 0.662376,0.687091 0.809352,0.943082 0.809352,1.409664 0,0.607287 -0.631955,1.496522 -1.417645,1.994791 -0.5739642,0.363998 -0.9259295,0.391759 -1.3847509,0.109221 z m 1.6821929,-2.161869 c -0.03384,-0.03384 -0.09529,0.02716 -0.136557,0.135541 -0.05964,0.156626 -0.04702,0.169249 0.06152,0.06152 0.07511,-0.07455 0.108873,-0.163225 0.07504,-0.197061 z"
     id="path847"
     inkscape:connector-curvature="0" />
  <path
     style="opacity:1;fill:none;fill-opacity:1;stroke:none;stroke-width:0.01465305;stroke-miterlimit:4;stroke-dasharray:none;stroke-opacity:1;paint-order:fill markers stroke"
     d="M 8.957712,23.91707 C 8.2387158,23.52274 7.2542949,22.262536 7.2542949,21.736444 c 0,-0.368177 0.3852145,-1.009717 0.8975885,-1.494853 0.8906423,-0.843295 1.2337693,-0.967049 1.8278415,-0.65924 0.3480941,0.18036 1.3147101,1.142082 1.5201431,1.512447 0.426627,0.769147 -0.165424,1.952134 -1.385207,2.767801 -0.3097836,0.207152 -0.8335936,0.231814 -1.156949,0.05447 z"
     id="path849"
     inkscape:connector-curvature="0" />
  <path
     style="opacity:1;fill:none;fill-opacity:1;stroke:none;stroke-width:0.01465305;stroke-miterlimit:4;stroke-dasharray:none;stroke-opacity:1;paint-order:fill markers stroke"
     d="m 18.958419,18.580776 c -1.144111,-0.158223 -2.587353,-0.713463 -3.537332,-1.360868 -0.781631,-0.532677 -1.976565,-1.712996 -2.477202,-2.446901 -1.024804,-1.502306 -1.398697,-2.797365 -1.401665,-4.85497 -0.0023,-1.6176276 0.149841,-2.2698281 0.873055,-3.7418189 0.488644,-0.9945598 0.656024,-1.2155051 1.626418,-2.1469126 1.852958,-1.7785138 3.445765,-2.4249461 6.015705,-2.4414422 1.610012,-0.010334 2.206657,0.1211567 3.510169,0.7735855 1.658061,0.829887 2.778225,1.8435091 3.640089,3.2938721 1.683071,2.8323039 1.737126,5.9439921 0.150124,8.6418331 -0.554642,0.94287 -2.087497,2.497307 -2.983002,3.025 -1.701621,1.002713 -3.777969,1.485203 -5.416359,1.258622 z M 17.3649,16.958119 c 0,-0.06664 -0.840522,-0.498484 -0.957229,-0.491807 -0.04774,0.0027 0.135742,0.124132 0.407739,0.269779 0.554049,0.296678 0.54949,0.294835 0.54949,0.222028 z m -1.978162,-1.194076 c 0,-0.02085 -0.111272,-0.132126 -0.24727,-0.247271 l -0.247271,-0.209354 0.209355,0.24727 c 0.196741,0.232373 0.285186,0.297301 0.285186,0.209355 z m 6.251899,-0.852584 C 24.704789,13.868002 25.980444,10.689874 24.537234,7.6899834 24.15258,6.8904299 23.09045,5.816377 22.310304,5.438054 20.65942,4.6374757 18.593109,4.7783799 17.070128,5.7953877 c -1.536479,1.0260212 -2.329949,2.7462815 -2.199001,4.7674833 0.07881,1.216509 0.457117,2.068628 1.34335,3.025865 1.391111,1.502566 3.432741,2.000434 5.42416,1.322723 z m 3.858706,0.06626 c 0.14196,-0.151109 0.233382,-0.274744 0.20316,-0.274744 -0.03022,0 -0.171098,0.123635 -0.313058,0.274744 -0.141961,0.15111 -0.233383,0.274745 -0.203161,0.274745 0.03022,0 0.171098,-0.123635 0.313059,-0.274745 z m 1.031013,-1.43438 c 0.03753,-0.0978 0.01911,-0.141913 -0.04319,-0.103412 -0.05975,0.03693 -0.108639,0.113679 -0.108639,0.170555 0,0.158081 0.07877,0.123246 0.15183,-0.06714 z M 14.672402,4.9220686 c 0.109401,-0.1208877 0.174185,-0.2197958 0.143963,-0.2197958 -0.03022,0 -0.144459,0.098908 -0.253861,0.2197958 -0.109402,0.1208876 -0.174186,0.2197957 -0.143964,0.2197957 0.03022,0 0.14446,-0.098908 0.253862,-0.2197957 z m 0.838252,-0.7418107 c 0.136699,-0.1743042 0.132812,-0.1781913 -0.04149,-0.041493 -0.183062,0.1435672 -0.241278,0.2338138 -0.150828,0.2338138 0.02282,0 0.109365,-0.086545 0.192321,-0.1923213 z"
     id="path851"
     inkscape:connector-curvature="0" />
  <path
     style="opacity:1;fill:none;fill-opacity:1;stroke:none;stroke-width:0.01465305;stroke-miterlimit:4;stroke-dasharray:none;stroke-opacity:1;paint-order:fill markers stroke"
     d="m 18.958419,18.580776 c -1.144111,-0.158223 -2.587353,-0.713463 -3.537332,-1.360868 -0.781631,-0.532677 -1.976565,-1.712996 -2.477202,-2.446901 -1.024804,-1.502306 -1.398697,-2.797365 -1.401665,-4.85497 -0.0023,-1.6176276 0.149841,-2.2698281 0.873055,-3.7418189 0.488644,-0.9945598 0.656024,-1.2155051 1.626418,-2.1469126 1.852958,-1.7785138 3.445765,-2.4249461 6.015705,-2.4414422 1.610012,-0.010334 2.206657,0.1211567 3.510169,0.7735855 1.658061,0.829887 2.778225,1.8435091 3.640089,3.2938721 1.683071,2.8323039 1.737126,5.9439921 0.150124,8.6418331 -0.554642,0.94287 -2.087497,2.497307 -2.983002,3.025 -1.701621,1.002713 -3.777969,1.485203 -5.416359,1.258622 z M 17.3649,16.958119 c 0,-0.06664 -0.840522,-0.498484 -0.957229,-0.491807 -0.04774,0.0027 0.135742,0.124132 0.407739,0.269779 0.554049,0.296678 0.54949,0.294835 0.54949,0.222028 z m -1.978162,-1.194076 c 0,-0.02085 -0.111272,-0.132126 -0.24727,-0.247271 l -0.247271,-0.209354 0.209355,0.24727 c 0.196741,0.232373 0.285186,0.297301 0.285186,0.209355 z m 6.251899,-0.852584 C 24.704789,13.868002 25.980444,10.689874 24.537234,7.6899834 24.15258,6.8904299 23.09045,5.816377 22.310304,5.438054 20.65942,4.6374757 18.593109,4.7783799 17.070128,5.7953877 c -1.536479,1.0260212 -2.329949,2.7462815 -2.199001,4.7674833 0.07881,1.216509 0.457117,2.068628 1.34335,3.025865 1.391111,1.502566 3.432741,2.000434 5.42416,1.322723 z m 3.858706,0.06626 c 0.14196,-0.151109 0.233382,-0.274744 0.20316,-0.274744 -0.03022,0 -0.171098,0.123635 -0.313058,0.274744 -0.141961,0.15111 -0.233383,0.274745 -0.203161,0.274745 0.03022,0 0.171098,-0.123635 0.313059,-0.274745 z m 1.031013,-1.43438 c 0.03753,-0.0978 0.01911,-0.141913 -0.04319,-0.103412 -0.05975,0.03693 -0.108639,0.113679 -0.108639,0.170555 0,0.158081 0.07877,0.123246 0.15183,-0.06714 z M 14.672402,4.9220686 c 0.109401,-0.1208877 0.174185,-0.2197958 0.143963,-0.2197958 -0.03022,0 -0.144459,0.098908 -0.253861,0.2197958 -0.109402,0.1208876 -0.174186,0.2197957 -0.143964,0.2197957 0.03022,0 0.14446,-0.098908 0.253862,-0.2197957 z m 0.838252,-0.7418107 c 0.136699,-0.1743042 0.132812,-0.1781913 -0.04149,-0.041493 -0.183062,0.1435672 -0.241278,0.2338138 -0.150828,0.2338138 0.02282,0 0.109365,-0.086545 0.192321,-0.1923213 z"
     id="path853"
     inkscape:connector-curvature="0" />
  <path
     style="opacity:1;fill:none;fill-opacity:1;stroke:none;stroke-width:0.01465305;stroke-miterlimit:4;stroke-dasharray:none;stroke-opacity:1;paint-order:fill markers stroke"
     d="m 18.958419,18.580776 c -1.144111,-0.158223 -2.587353,-0.713463 -3.537332,-1.360868 -0.781631,-0.532677 -1.976565,-1.712996 -2.477202,-2.446901 -1.024804,-1.502306 -1.398697,-2.797365 -1.401665,-4.85497 -0.0023,-1.6176276 0.149841,-2.2698281 0.873055,-3.7418189 0.488644,-0.9945598 0.656024,-1.2155051 1.626418,-2.1469126 1.852958,-1.7785138 3.445765,-2.4249461 6.015705,-2.4414422 1.610012,-0.010334 2.206657,0.1211567 3.510169,0.7735855 1.658061,0.829887 2.778225,1.8435091 3.640089,3.2938721 1.683071,2.8323039 1.737126,5.9439921 0.150124,8.6418331 -0.554642,0.94287 -2.087497,2.497307 -2.983002,3.025 -1.701621,1.002713 -3.777969,1.485203 -5.416359,1.258622 z M 17.3649,16.958119 c 0,-0.06664 -0.840522,-0.498484 -0.957229,-0.491807 -0.04774,0.0027 0.135742,0.124132 0.407739,0.269779 0.554049,0.296678 0.54949,0.294835 0.54949,0.222028 z m -1.978162,-1.194076 c 0,-0.02085 -0.111272,-0.132126 -0.24727,-0.247271 l -0.247271,-0.209354 0.209355,0.24727 c 0.196741,0.232373 0.285186,0.297301 0.285186,0.209355 z m 6.251899,-0.852584 C 24.704789,13.868002 25.980444,10.689874 24.537234,7.6899834 24.15258,6.8904299 23.09045,5.816377 22.310304,5.438054 20.65942,4.6374757 18.593109,4.7783799 17.070128,5.7953877 c -1.536479,1.0260212 -2.329949,2.7462815 -2.199001,4.7674833 0.07881,1.216509 0.457117,2.068628 1.34335,3.025865 1.391111,1.502566 3.432741,2.000434 5.42416,1.322723 z m 3.858706,0.06626 c 0.14196,-0.151109 0.233382,-0.274744 0.20316,-0.274744 -0.03022,0 -0.171098,0.123635 -0.313058,0.274744 -0.141961,0.15111 -0.233383,0.274745 -0.203161,0.274745 0.03022,0 0.171098,-0.123635 0.313059,-0.274745 z m 1.031013,-1.43438 c 0.03753,-0.0978 0.01911,-0.141913 -0.04319,-0.103412 -0.05975,0.03693 -0.108639,0.113679 -0.108639,0.170555 0,0.158081 0.07877,0.123246 0.15183,-0.06714 z M 14.672402,4.9220686 c 0.109401,-0.1208877 0.174185,-0.2197958 0.143963,-0.2197958 -0.03022,0 -0.144459,0.098908 -0.253861,0.2197958 -0.109402,0.1208876 -0.174186,0.2197957 -0.143964,0.2197957 0.03022,0 0.14446,-0.098908 0.253862,-0.2197957 z m 0.838252,-0.7418107 c 0.136699,-0.1743042 0.132812,-0.1781913 -0.04149,-0.041493 -0.183062,0.1435672 -0.241278,0.2338138 -0.150828,0.2338138 0.02282,0 0.109365,-0.086545 0.192321,-0.1923213 z"
     id="path855"
     inkscape:connector-curvature="0" />
  <path
     style="opacity:1;fill:none;fill-opacity:1;stroke:none;stroke-width:0.01465305;stroke-miterlimit:4;stroke-dasharray:none;stroke-opacity:1;paint-order:fill markers stroke"
     d="m 18.958419,18.580776 c -1.144111,-0.158223 -2.587353,-0.713463 -3.537332,-1.360868 -0.781631,-0.532677 -1.976565,-1.712996 -2.477202,-2.446901 -1.024804,-1.502306 -1.398697,-2.797365 -1.401665,-4.85497 -0.0023,-1.6176276 0.149841,-2.2698281 0.873055,-3.7418189 0.488644,-0.9945598 0.656024,-1.2155051 1.626418,-2.1469126 1.852958,-1.7785138 3.445765,-2.4249461 6.015705,-2.4414422 1.610012,-0.010334 2.206657,0.1211567 3.510169,0.7735855 1.658061,0.829887 2.778225,1.8435091 3.640089,3.2938721 1.683071,2.8323039 1.737126,5.9439921 0.150124,8.6418331 -0.554642,0.94287 -2.087497,2.497307 -2.983002,3.025 -1.701621,1.002713 -3.777969,1.485203 -5.416359,1.258622 z M 17.3649,16.958119 c 0,-0.06664 -0.840522,-0.498484 -0.957229,-0.491807 -0.04774,0.0027 0.135742,0.124132 0.407739,0.269779 0.554049,0.296678 0.54949,0.294835 0.54949,0.222028 z m -1.978162,-1.194076 c 0,-0.02085 -0.111272,-0.132126 -0.24727,-0.247271 l -0.247271,-0.209354 0.209355,0.24727 c 0.196741,0.232373 0.285186,0.297301 0.285186,0.209355 z m 6.251899,-0.852584 C 24.704789,13.868002 25.980444,10.689874 24.537234,7.6899834 24.15258,6.8904299 23.09045,5.816377 22.310304,5.438054 20.65942,4.6374757 18.593109,4.7783799 17.070128,5.7953877 c -1.536479,1.0260212 -2.329949,2.7462815 -2.199001,4.7674833 0.07881,1.216509 0.457117,2.068628 1.34335,3.025865 1.391111,1.502566 3.432741,2.000434 5.42416,1.322723 z m 3.858706,0.06626 c 0.14196,-0.151109 0.233382,-0.274744 0.20316,-0.274744 -0.03022,0 -0.171098,0.123635 -0.313058,0.274744 -0.141961,0.15111 -0.233383,0.274745 -0.203161,0.274745 0.03022,0 0.171098,-0.123635 0.313059,-0.274745 z m 1.031013,-1.43438 c 0.03753,-0.0978 0.01911,-0.141913 -0.04319,-0.103412 -0.05975,0.03693 -0.108639,0.113679 -0.108639,0.170555 0,0.158081 0.07877,0.123246 0.15183,-0.06714 z M 14.672402,4.9220686 c 0.109401,-0.1208877 0.174185,-0.2197958 0.143963,-0.2197958 -0.03022,0 -0.144459,0.098908 -0.253861,0.2197958 -0.109402,0.1208876 -0.174186,0.2197957 -0.143964,0.2197957 0.03022,0 0.14446,-0.098908 0.253862,-0.2197957 z m 0.838252,-0.7418107 c 0.136699,-0.1743042 0.132812,-0.1781913 -0.04149,-0.041493 -0.183062,0.1435672 -0.241278,0.2338138 -0.150828,0.2338138 0.02282,0 0.109365,-0.086545 0.192321,-0.1923213 z"
     id="path857"
     inkscape:connector-curvature="0" />
  <path
     style="opacity:1;fill:none;fill-opacity:1;stroke:none;stroke-width:0.01465305;stroke-miterlimit:4;stroke-dasharray:none;stroke-opacity:1;paint-order:fill markers stroke"
     d="m 18.958419,18.580776 c -1.144111,-0.158223 -2.587353,-0.713463 -3.537332,-1.360868 -0.781631,-0.532677 -1.976565,-1.712996 -2.477202,-2.446901 -1.024804,-1.502306 -1.398697,-2.797365 -1.401665,-4.85497 -0.0023,-1.6176276 0.149841,-2.2698281 0.873055,-3.7418189 0.488644,-0.9945598 0.656024,-1.2155051 1.626418,-2.1469126 1.852958,-1.7785138 3.445765,-2.4249461 6.015705,-2.4414422 1.610012,-0.010334 2.206657,0.1211567 3.510169,0.7735855 1.658061,0.829887 2.778225,1.8435091 3.640089,3.2938721 1.683071,2.8323039 1.737126,5.9439921 0.150124,8.6418331 -0.554642,0.94287 -2.087497,2.497307 -2.983002,3.025 -1.701621,1.002713 -3.777969,1.485203 -5.416359,1.258622 z M 17.3649,16.958119 c 0,-0.06664 -0.840522,-0.498484 -0.957229,-0.491807 -0.04774,0.0027 0.135742,0.124132 0.407739,0.269779 0.554049,0.296678 0.54949,0.294835 0.54949,0.222028 z m -1.978162,-1.194076 c 0,-0.02085 -0.111272,-0.132126 -0.24727,-0.247271 l -0.247271,-0.209354 0.209355,0.24727 c 0.196741,0.232373 0.285186,0.297301 0.285186,0.209355 z m 6.251899,-0.852584 C 24.704789,13.868002 25.980444,10.689874 24.537234,7.6899834 24.15258,6.8904299 23.09045,5.816377 22.310304,5.438054 20.65942,4.6374757 18.593109,4.7783799 17.070128,5.7953877 c -1.536479,1.0260212 -2.329949,2.7462815 -2.199001,4.7674833 0.07881,1.216509 0.457117,2.068628 1.34335,3.025865 1.391111,1.502566 3.432741,2.000434 5.42416,1.322723 z m 3.858706,0.06626 c 0.14196,-0.151109 0.233382,-0.274744 0.20316,-0.274744 -0.03022,0 -0.171098,0.123635 -0.313058,0.274744 -0.141961,0.15111 -0.233383,0.274745 -0.203161,0.274745 0.03022,0 0.171098,-0.123635 0.313059,-0.274745 z m 1.031013,-1.43438 c 0.03753,-0.0978 0.01911,-0.141913 -0.04319,-0.103412 -0.05975,0.03693 -0.108639,0.113679 -0.108639,0.170555 0,0.158081 0.07877,0.123246 0.15183,-0.06714 z M 14.672402,4.9220686 c 0.109401,-0.1208877 0.174185,-0.2197958 0.143963,-0.2197958 -0.03022,0 -0.144459,0.098908 -0.253861,0.2197958 -0.109402,0.1208876 -0.174186,0.2197957 -0.143964,0.2197957 0.03022,0 0.14446,-0.098908 0.253862,-0.2197957 z m 0.838252,-0.7418107 c 0.136699,-0.1743042 0.132812,-0.1781913 -0.04149,-0.041493 -0.183062,0.1435672 -0.241278,0.2338138 -0.150828,0.2338138 0.02282,0 0.109365,-0.086545 0.192321,-0.1923213 z"
     id="path859"
     inkscape:connector-curvature="0" />
  <path
     style="opacity:1;fill:none;fill-opacity:1;stroke:none;stroke-width:0.01465305;stroke-miterlimit:4;stroke-dasharray:none;stroke-opacity:1;paint-order:fill markers stroke"
     d="m 18.958419,18.580776 c -1.144111,-0.158223 -2.587353,-0.713463 -3.537332,-1.360868 -0.781631,-0.532677 -1.976565,-1.712996 -2.477202,-2.446901 -1.024804,-1.502306 -1.398697,-2.797365 -1.401665,-4.85497 -0.0023,-1.6176276 0.149841,-2.2698281 0.873055,-3.7418189 0.488644,-0.9945598 0.656024,-1.2155051 1.626418,-2.1469126 1.852958,-1.7785138 3.445765,-2.4249461 6.015705,-2.4414422 1.610012,-0.010334 2.206657,0.1211567 3.510169,0.7735855 1.658061,0.829887 2.778225,1.8435091 3.640089,3.2938721 1.683071,2.8323039 1.737126,5.9439921 0.150124,8.6418331 -0.554642,0.94287 -2.087497,2.497307 -2.983002,3.025 -1.701621,1.002713 -3.777969,1.485203 -5.416359,1.258622 z M 17.3649,16.958119 c 0,-0.06664 -0.840522,-0.498484 -0.957229,-0.491807 -0.04774,0.0027 0.135742,0.124132 0.407739,0.269779 0.554049,0.296678 0.54949,0.294835 0.54949,0.222028 z m -1.978162,-1.194076 c 0,-0.02085 -0.111272,-0.132126 -0.24727,-0.247271 l -0.247271,-0.209354 0.209355,0.24727 c 0.196741,0.232373 0.285186,0.297301 0.285186,0.209355 z m 6.251899,-0.852584 C 24.704789,13.868002 25.980444,10.689874 24.537234,7.6899834 24.15258,6.8904299 23.09045,5.816377 22.310304,5.438054 20.65942,4.6374757 18.593109,4.7783799 17.070128,5.7953877 c -1.536479,1.0260212 -2.329949,2.7462815 -2.199001,4.7674833 0.07881,1.216509 0.457117,2.068628 1.34335,3.025865 1.391111,1.502566 3.432741,2.000434 5.42416,1.322723 z m 3.858706,0.06626 c 0.14196,-0.151109 0.233382,-0.274744 0.20316,-0.274744 -0.03022,0 -0.171098,0.123635 -0.313058,0.274744 -0.141961,0.15111 -0.233383,0.274745 -0.203161,0.274745 0.03022,0 0.171098,-0.123635 0.313059,-0.274745 z m 1.031013,-1.43438 c 0.03753,-0.0978 0.01911,-0.141913 -0.04319,-0.103412 -0.05975,0.03693 -0.108639,0.113679 -0.108639,0.170555 0,0.158081 0.07877,0.123246 0.15183,-0.06714 z M 14.672402,4.9220686 c 0.109401,-0.1208877 0.174185,-0.2197958 0.143963,-0.2197958 -0.03022,0 -0.144459,0.098908 -0.253861,0.2197958 -0.109402,0.1208876 -0.174186,0.2197957 -0.143964,0.2197957 0.03022,0 0.14446,-0.098908 0.253862,-0.2197957 z m 0.838252,-0.7418107 c 0.136699,-0.1743042 0.132812,-0.1781913 -0.04149,-0.041493 -0.183062,0.1435672 -0.241278,0.2338138 -0.150828,0.2338138 0.02282,0 0.109365,-0.086545 0.192321,-0.1923213 z"
     id="path861"
     inkscape:connector-curvature="0" />
  <path
     style="opacity:1;fill:#e8e8e8;fill-opacity:1;stroke:none;stroke-width:0.01465305;stroke-miterlimit:4;stroke-dasharray:none;stroke-opacity:1;paint-order:fill markers stroke"
     d="m 18.958419,18.580776 c -1.144111,-0.158223 -2.587353,-0.713463 -3.537332,-1.360868 -0.781631,-0.532677 -1.976565,-1.712996 -2.477202,-2.446901 -1.024804,-1.502306 -1.398697,-2.797365 -1.401665,-4.85497 -0.0023,-1.6176276 0.149841,-2.2698281 0.873055,-3.7418189 0.488644,-0.9945598 0.656024,-1.2155051 1.626418,-2.1469126 1.852958,-1.7785138 3.445765,-2.4249461 6.015705,-2.4414422 1.610012,-0.010334 2.206657,0.1211567 3.510169,0.7735855 1.658061,0.829887 2.778225,1.8435091 3.640089,3.2938721 1.683071,2.8323039 1.737126,5.9439921 0.150124,8.6418331 -0.554642,0.94287 -2.087497,2.497307 -2.983002,3.025 -1.701621,1.002713 -3.777969,1.485203 -5.416359,1.258622 z M 17.3649,16.958119 c 0,-0.06664 -0.840522,-0.498484 -0.957229,-0.491807 -0.04774,0.0027 0.135742,0.124132 0.407739,0.269779 0.554049,0.296678 0.54949,0.294835 0.54949,0.222028 z m -1.978162,-1.194076 c 0,-0.02085 -0.111272,-0.132126 -0.24727,-0.247271 l -0.247271,-0.209354 0.209355,0.24727 c 0.196741,0.232373 0.285186,0.297301 0.285186,0.209355 z m 6.251899,-0.852584 C 24.704789,13.868002 25.980444,10.689874 24.537234,7.6899834 24.15258,6.8904299 23.09045,5.816377 22.310304,5.438054 20.65942,4.6374757 18.593109,4.7783799 17.070128,5.7953877 c -1.536479,1.0260212 -2.329949,2.7462815 -2.199001,4.7674833 0.07881,1.216509 0.457117,2.068628 1.34335,3.025865 1.391111,1.502566 3.432741,2.000434 5.42416,1.322723 z m 3.858706,0.06626 c 0.14196,-0.151109 0.233382,-0.274744 0.20316,-0.274744 -0.03022,0 -0.171098,0.123635 -0.313058,0.274744 -0.141961,0.15111 -0.233383,0.274745 -0.203161,0.274745 0.03022,0 0.171098,-0.123635 0.313059,-0.274745 z m 1.031013,-1.43438 c 0.03753,-0.0978 0.01911,-0.141913 -0.04319,-0.103412 -0.05975,0.03693 -0.108639,0.113679 -0.108639,0.170555 0,0.158081 0.07877,0.123246 0.15183,-0.06714 z M 14.672402,4.9220686 c 0.109401,-0.1208877 0.174185,-0.2197958 0.143963,-0.2197958 -0.03022,0 -0.144459,0.098908 -0.253861,0.2197958 -0.109402,0.1208876 -0.174186,0.2197957 -0.143964,0.2197957 0.03022,0 0.14446,-0.098908 0.253862,-0.2197957 z m 0.838252,-0.7418107 c 0.136699,-0.1743042 0.132812,-0.1781913 -0.04149,-0.041493 -0.183062,0.1435672 -0.241278,0.2338138 -0.150828,0.2338138 0.02282,0 0.109365,-0.086545 0.192321,-0.1923213 z"
     id="path863"
     inkscape:connector-curvature="0" />
  <path
     style="opacity:1;fill:#e8e8e8;fill-opacity:1;stroke:none;stroke-width:0.01275942;stroke-miterlimit:4;stroke-dasharray:none;stroke-opacity:1;paint-order:fill markers stroke"
     d="m 18.289797,18.483655 c -0.710623,-0.162373 -1.888833,-0.654033 -2.666578,-1.112748 -0.842306,-0.496793 -2.484334,-2.184357 -3.010406,-3.093891 -0.773005,-1.336461 -1.1165,-2.684708 -1.121507,-4.4020022 -0.0042,-1.4363937 0.208874,-2.2951782 0.935506,-3.770747 0.938548,-1.9059056 3.179233,-3.7331067 5.233189,-4.2674841 0.811514,-0.2111314 2.36889,-0.349077 3.157958,-0.2797179 2.441228,0.2145839 4.803006,1.6647713 6.221667,3.8202515 0.566286,0.8604038 0.899564,1.5994246 1.216322,2.6971205 0.285668,0.989957 0.306264,3.0887872 0.03974,4.0494262 -0.815663,2.939869 -3.155276,5.288392 -6.158863,6.182319 -1.05604,0.314299 -2.87996,0.398441 -3.847024,0.177473 z m 2.690919,-3.401847 c 0.721624,-0.148443 1.959178,-0.764645 2.510728,-1.250139 1.429768,-1.258532 1.965333,-3.370292 1.348036,-5.3153788 -0.474797,-1.4960748 -1.682543,-2.787367 -3.090107,-3.3038665 -0.813058,-0.2983475 -2.703211,-0.295398 -3.515198,0.00549 -2.322059,0.8604433 -3.66125,3.1668027 -3.309069,5.6988913 0.153776,1.105607 0.549358,1.863138 1.433871,2.74583 1.053048,1.050881 2.064136,1.498032 3.425543,1.514938 0.378996,0.0047 0.917284,-0.03839 1.196196,-0.09576 z"
     id="path865"
     inkscape:connector-curvature="0" />
  <path
     style="opacity:1;fill:#e8e8e8;fill-opacity:1;stroke:none;stroke-width:0.01275942;stroke-miterlimit:4;stroke-dasharray:none;stroke-opacity:1;paint-order:fill markers stroke"
     d="m 18.090632,18.433778 c -0.885389,-0.230505 -2.14054,-0.82258 -2.911865,-1.373575 -0.855636,-0.611221 -2.078242,-1.933779 -2.579985,-2.790907 -0.837978,-1.431519 -1.167252,-2.883411 -1.083386,-4.7770649 0.06167,-1.3924148 0.218076,-1.9982049 0.846991,-3.28048 0.385015,-0.7849948 0.636686,-1.1466546 1.245492,-1.7898161 1.69453,-1.7901541 3.244382,-2.5875003 5.501947,-2.8305644 1.75602,-0.1890645 2.929624,0.012547 4.483308,0.7701776 2.306596,1.124778 3.978955,3.1519869 4.658856,5.6473996 0.184364,0.6766578 0.221501,1.0467025 0.220888,2.2010012 -6.7e-4,1.184599 -0.03346,1.492582 -0.224448,2.105305 -0.876314,2.811399 -3.057703,5.016369 -5.851492,5.914748 -1.404332,0.451581 -3.054527,0.529669 -4.306306,0.203776 z m 2.8943,-3.387758 c 0.887199,-0.188009 2.099372,-0.83851 2.721128,-1.460265 1.472876,-1.472876 1.797066,-3.9492028 0.772776,-5.9028359 C 24.04536,6.8561502 22.959612,5.7863773 22.187048,5.4248509 20.899687,4.8224218 19.05124,4.8424199 17.72311,5.4731457 c -1.28531,0.6103913 -2.349614,1.9334447 -2.688242,3.3418 -0.142409,0.5922786 -0.142882,2.1309363 -8.23e-4,2.6651943 0.325952,1.225812 1.460443,2.566378 2.680864,3.167829 1.096201,0.540233 2.050763,0.65643 3.27002,0.398051 z"
     id="path867"
     inkscape:connector-curvature="0" />
  <path
     style="opacity:1;fill:#e8e8e8;fill-opacity:1;stroke:none;stroke-width:0.01275942;stroke-miterlimit:4;stroke-dasharray:none;stroke-opacity:1;paint-order:fill markers stroke"
     d="M 18.109197,18.437471 C 16.56997,18.034231 15.379412,17.355373 14.185,16.199888 12.16407,14.244824 11.412949,12.374716 11.510114,9.5400789 c 0.03702,-1.0799545 0.08704,-1.4172644 0.304891,-2.0561166 0.451103,-1.3228489 0.970068,-2.1958927 1.8632,-3.1344212 1.905926,-2.0028023 3.666667,-2.7738657 6.374188,-2.791384 1.543969,-0.00999 2.12476,0.1114804 3.369037,0.7046206 2.447906,1.1669046 4.080959,3.0985937 4.834478,5.7185617 0.18084,0.6287746 0.214307,0.9772769 0.214017,2.2286096 -2.87e-4,1.425847 -0.01246,1.518486 -0.313347,2.392392 -0.469813,1.364563 -1.056593,2.282738 -2.171052,3.397197 -1.013598,1.013598 -1.751736,1.511242 -3.014414,2.032282 -1.483134,0.612009 -3.448332,0.775974 -4.861915,0.405651 z M 20.9013,15.043497 C 22.30067,14.747019 23.717467,13.78508 24.382166,12.680151 25.611259,10.63703 25.072625,7.674613 23.190212,6.1245625 22.162403,5.2782248 21.479163,5.0423814 20.05513,5.0423814 c -1.639118,0 -2.600291,0.367158 -3.632529,1.3875875 -1.008707,0.9971681 -1.489927,2.1871266 -1.489927,3.6842841 0,1.480167 0.350332,2.354138 1.371107,3.420489 1.33344,1.392977 2.828393,1.883571 4.597519,1.508755 z"
     id="path869"
     inkscape:connector-curvature="0" />
  <path
     style="opacity:1;fill:#e8e8e8;fill-opacity:1;stroke:none;stroke-width:0.01275942;stroke-miterlimit:4;stroke-dasharray:none;stroke-opacity:1;paint-order:fill markers stroke"
     d="m 16.778502,26.91009 c -1.327347,-0.293115 -2.704464,-1.264549 -3.468568,-2.446767 -0.63939,-0.989261 -0.81659,-1.662605 -0.817079,-3.104826 -3.98e-4,-1.17428 0.01487,-1.275175 0.272168,-1.799174 0.482675,-0.982973 1.480965,-1.378285 2.376694,-0.941146 0.722565,0.352631 1.038956,1.048713 1.216721,2.676869 0.05365,0.491429 0.174673,1.05068 0.268928,1.242781 0.348421,0.710113 1.263313,1.005984 1.840291,0.595139 0.248971,-0.177282 0.54082,-0.738756 0.905806,-1.74263 0.35407,-0.973852 1.228151,-1.621891 1.993867,-1.478241 0.432176,0.08108 1.106498,0.667213 1.327592,1.153974 0.319159,0.702664 0.190758,1.850459 -0.321755,2.876211 -0.421743,0.844083 -1.63737,2.01051 -2.560013,2.456402 -1.123162,0.542799 -2.126678,0.711915 -3.034652,0.511408 z m -2.03722,-7.082724 c -0.06552,-0.07895 -0.165151,-0.143544 -0.221399,-0.143544 -0.05625,0 -0.01868,0.06322 0.08349,0.1405 0.24005,0.181565 0.286928,0.182599 0.13791,0.003 z"
     id="path871"
     inkscape:connector-curvature="0" />
  <path
     style="opacity:1;fill:#e8e8e8;fill-opacity:1;stroke:none;stroke-width:0.01275942;stroke-miterlimit:4;stroke-dasharray:none;stroke-opacity:1;paint-order:fill markers stroke"
     d="m 16.894435,26.958058 c -2.142056,-0.44707 -4.004904,-2.332777 -4.355012,-4.408457 -0.180046,-1.06743 -0.08687,-2.420714 0.207297,-3.010889 0.653048,-1.310171 2.402172,-1.485818 3.083114,-0.309606 0.291007,0.502667 0.404272,0.929324 0.539519,2.032311 0.14019,1.143303 0.352073,1.608316 0.848145,1.861393 0.899164,0.458719 1.450034,0.08002 2.016613,-1.386328 0.701144,-1.814616 1.855684,-2.356932 2.923077,-1.373043 0.539511,0.497303 0.718772,0.893867 0.715888,1.583694 -0.0051,1.219298 -0.406483,2.133199 -1.398776,3.18481 -0.375869,0.398338 -0.921279,0.867255 -1.212023,1.042036 -1.048228,0.630145 -2.493362,0.966592 -3.367842,0.784079 z"
     id="path873"
     inkscape:connector-curvature="0" />
</svg>
